<?xml version="1.0" encoding="iso-8859-1"?>
<!-- Generator: Adobe Illustrator 19.0.0, SVG Export Plug-In . SVG Version: 6.00 Build 0)  -->
<svg version="1.1" id="Layer_1" xmlns="http://www.w3.org/2000/svg" xmlns:xlink="http://www.w3.org/1999/xlink" x="0px" y="0px"
	 viewBox="0 0 511.997 511.997" style="enable-background:new 0 0 511.997 511.997;" xml:space="preserve">
<path style="fill:#848075;" d="M184.371,380.226c-31.889,18.628-55.866,49.312-65.699,85.799
	c39.053,22.822,84.286,36.221,132.586,37.045l4.741,0.04l56.889-59.259l-61.63-63.626H184.371z"/>
<path style="fill:#706B63;" d="M327.628,380.226H256v122.885c50.08,0,96.998-13.518,137.327-37.086
	C383.494,429.538,359.517,398.853,327.628,380.226z"/>
<path style="fill:#5B5751;" d="M331.852,492.404c9.832-2.844,19.436-6.231,28.778-10.118c-4.136-20.892-14.372-39.592-28.778-54.162
	V492.404z"/>
<path style="fill:#706B63;" d="M151.37,482.286c9.342,3.889,18.944,7.273,28.778,10.118v-64.281
	C165.742,442.694,155.507,461.392,151.37,482.286z"/>
<path style="fill:#C1BDAB;" d="M301.329,426.629l-4.243-4.243L256,377.481l-15.407,58.074L256,494.815l45.33-47.7
	C306.986,441.459,306.986,432.286,301.329,426.629z"/>
<path style="fill:#D5D2BD;" d="M214.913,422.387c-1.045,1.076-4.243,4.243-4.243,4.243c-5.657,5.657-5.657,14.829,0,20.486
	L256,494.815V377.481C256,377.481,225.945,411.025,214.913,422.387z"/>
<path style="fill:#C98A2E;" d="M256,398.814l-23.129-23.129c-8.96-8.96-24.279-2.615-24.279,10.056v26.144
	c0,12.671,15.32,19.016,24.279,10.056L256,398.814z"/>
<path style="fill:#915729;" d="M256,398.814l23.129-23.129c8.96-8.96,24.279-2.615,24.279,10.056v26.144
	c0,12.671-15.32,19.016-24.279,10.056L256,398.814z"/>
<circle style="fill:#AD712C;" cx="256" cy="398.815" r="17.778"/>
<g>
	<path style="fill:#ECCE93;" d="M439.704,177.184c-8.697,0-16.898,2.095-24.152,5.786
		c-16.904-63.936-65.819-122.064-126.819-137.856l-168.813,313c1.106,0.717,2.217,1.429,3.364,2.108l0,0
		c81.472,48.296,183.959,48.296,265.431,0l0,0c28.768-17.054,44.994-46.122,46.462-76.575c1.493,0.126,3,0.205,4.526,0.205
		c29.455,0,53.333-23.878,53.333-53.333S469.158,177.184,439.704,177.184z"/>
</g>
<path style="fill:#F8E5B5;" d="M378.615,219.929c-3.87-9.607-6.296-19.737-7.294-30.046c-5.442-56.206-37.299-112.382-82.586-144.77
	c-8.153-2.111-16.519-3.475-25.057-3.986c-2.546-0.153-5.103-0.241-7.678-0.241c-75.799,0-139.723,67.044-159.558,142.08
	c-7.251-3.689-15.451-5.784-24.146-5.784c-29.455,0-53.333,23.878-53.333,53.333s23.878,53.333,53.333,53.333
	c1.529,0,3.038-0.079,4.533-0.205c1.415,29.235,16.433,57.191,43.091,74.468c71.739,25.087,152.401,17.894,219.017-21.595l0,0
	C380.336,311.977,395.788,262.558,378.615,219.929z"/>
<g>
	<path style="fill:#ECCE93;" d="M415.55,182.963c-1.58-5.975-3.439-11.898-5.562-17.741c-2.355-0.841-4.874-1.307-7.482-1.307
		c-1.389,0-2.77,0.134-4.123,0.396c-8.66-18.625-20.8-35.18-36.176-49.309l-1.03-0.946c-9.962-9.153-25.371-8.813-34.919,0.772l0,0
		c-18.827,18.898-44.409,29.747-70.259,29.764c-26.186,0-50.785-10.217-69.27-28.773l-0.987-0.991
		c-9.548-9.585-24.958-9.925-34.919-0.772l-1.03,0.946c-15.383,14.136-27.528,30.7-36.189,49.336
		c-1.344-0.256-2.715-0.386-4.1-0.386c-2.62,0-5.151,0.468-7.516,1.313c-2.117,5.831-3.973,11.742-5.549,17.703
		c-0.136-0.069-0.279-0.128-0.415-0.197c13.473,6.711,23.716,18.938,27.737,33.736c1.102,4.055,4.794,6.974,8.997,6.988
		c0.027,0,0.055,0,0.082,0c10.706,0,19.681-6.919,22.331-17.214l0.105-0.42c3.035-12.386,8.219-23.873,15.443-34.246
		c25.077,17.242,54.373,26.309,85.278,26.309s60.2-9.067,85.278-26.309c7.225,10.373,12.408,21.858,15.443,34.246
		c3.366,13.738,14.509,24.32,28.388,26.961l1.326,0.252c-0.04-0.847-0.065-1.7-0.065-2.556
		C386.371,209.758,398.235,191.776,415.55,182.963z"/>
	<circle style="fill:#ECCE93;" cx="72.296" cy="230.519" r="17.778"/>
</g>
<circle style="fill:#E1B872;" cx="439.704" cy="230.519" r="17.778"/>
<path style="opacity:0.2;fill:#463540;enable-background:new    ;" d="M386.699,236.42l0.009,0.171
	c-0.011-0.095-0.014-0.191-0.025-0.286c-0.069-0.636-0.117-1.279-0.164-1.922c-0.023-0.318-0.055-0.633-0.072-0.952
	c-0.051-0.947-0.079-1.901-0.081-2.861c0-0.015-0.001-0.031-0.001-0.046l0,0v-0.006c0.167-3.182-1.454-6.267-4.288-7.725
	c-6.754-3.475-13.49,1.338-13.49,7.725v0.006l0,0c0,19.64-15.922,35.55-35.562,35.55h-14.822c-9.816,0-17.772,7.957-17.772,17.772
	l0,0c0,14.727-11.94,26.667-26.667,26.667h-35.567c-14.721,0-26.655-11.934-26.655-26.655v-0.012
	c0-9.816-7.956-17.772-17.772-17.772h-14.809c-19.64,0-35.562-15.91-35.562-35.55l0,0v-0.006c0.167-3.182-1.454-6.267-4.288-7.725
	c-6.754-3.475-13.49,2.98-13.49,7.731l0,0c-0.002,27.924-21.47,50.82-48.8,53.123c1.415,29.235,16.433,57.191,43.091,74.468
	c1.106,0.717,2.217,1.429,3.364,2.108l0,0c81.472,48.296,183.959,48.296,265.431,0l0,0c28.766-17.052,44.992-46.118,46.462-76.57
	C409.792,281.516,389.473,261.615,386.699,236.42z"/>
<path style="fill:#978574;" d="M391.927,206.814c8.729-17.557,26.839-29.63,47.776-29.63l0,0c0-18.502-6.945-36.315-19.435-49.965
	c-22.597-24.696-62.072-64.294-103.137-88.916C253.965,0.43,179.419,1.143,150.388,28.936s-10.007,45.716-10.007,45.716
	c-33.375,8.409-50.914,28.043-60.006,48.198c-5.489,12.172-8.079,25.451-8.079,38.802v15.532c20.939,0,39.048,12.072,47.776,29.63
	l0,0c4.412,0,8.256-3.012,9.306-7.298c6.212-25.351,19.85-47.777,38.459-64.877c22.533,22.619,53.713,36.62,88.163,36.62
	s65.63-14.001,88.163-36.62c18.61,17.1,32.248,39.526,38.459,64.877C383.672,203.802,387.514,206.814,391.927,206.814
	L391.927,206.814z"/>
<g>
	<path style="fill:#B0A18D;" d="M80.375,122.852c-3.96,8.778-6.404,18.135-7.462,27.677c15.067,0.114,29.358,4.352,41.585,11.937
		c8.54-17.71,20.405-33.742,35.131-47.312c0.098-0.09,0.197-0.18,0.295-0.268c9.466-8.469,9.625-23.208,0.128-31.643l-9.67-8.589
		C107.006,83.062,89.467,102.696,80.375,122.852z"/>
	<path style="opacity:0.6;fill:#B0A18D;enable-background:new    ;" d="M317.634,38.605c-0.167-0.101-0.334-0.201-0.503-0.302
		C253.965,0.43,179.419,1.142,150.388,28.937c-29.031,27.794-10.007,45.716-10.007,45.716l44.112,39.179
		c0.772,0.617,1.523,1.271,2.236,1.986c18.483,18.554,43.083,28.773,69.27,28.773s50.788-10.219,69.27-28.773l2.095-2.184
		C348.827,91.258,344.19,54.61,317.634,38.605z"/>
</g>
<path d="M178.963,221.629c-4.91,0-8.889,3.98-8.889,8.889s3.979,8.889,8.889,8.889h35.556c4.91,0,8.889-3.98,8.889-8.889
	s-3.979-8.889-8.889-8.889H178.963z"/>
<path d="M333.037,221.629h-35.556c-4.91,0-8.889,3.98-8.889,8.889s3.979,8.889,8.889,8.889h35.556c4.91,0,8.889-3.98,8.889-8.889
	S337.946,221.629,333.037,221.629z"/>
<path d="M229.333,266.073c0,4.909,3.98,8.889,8.889,8.889h35.556c4.909,0,8.889-3.98,8.889-8.889
	c0-14.705-11.962-26.667-26.667-26.667S229.333,251.369,229.333,266.073z"/>
<path d="M214.518,186.073h-35.556c-4.909,0-8.889,3.98-8.889,8.889c0,4.909,3.98,8.889,8.889,8.889h35.556
	c4.909,0,8.889-3.98,8.889-8.889C223.407,190.053,219.427,186.073,214.518,186.073z"/>
<path d="M448.167,168.887c-1.774-17.706-9.189-34.388-21.341-47.667c-25.436-27.801-64.323-66.077-105.124-90.54
	C290.854,12.183,255.189,1.328,221.277,0.112c-32.855-1.18-60.934,6.988-77.037,22.402c-12.569,12.034-18.918,24.295-18.869,36.443
	c0.017,3.974,0.723,7.461,1.735,10.424c-25.582,9.08-44,25.798-54.833,49.815c-2.963,6.566-5.217,13.574-6.705,20.827
	c-0.986,4.809,2.114,9.506,6.923,10.494c4.809,0.973,9.508-2.114,10.492-6.924c1.223-5.969,3.072-11.718,5.495-17.087
	c9.998-22.167,28.191-36.714,54.074-43.234c3.209-0.809,5.837-3.215,6.606-6.436c0.763-3.193-0.168-6.428-2.62-8.6
	c-0.484-0.524-3.482-4.006-3.386-9.683c0.115-6.905,4.743-14.927,13.383-23.198c25.21-24.132,95.487-25.728,156.026,10.57
	c41.016,24.591,80.979,65.247,101.15,87.293c9.166,10.016,14.91,22.492,16.589,35.776c-19.905,2.991-37.153,15.398-46.331,33.861
	c-2.185,4.397-0.393,9.732,4.002,11.917c1.271,0.632,2.62,0.932,3.95,0.932c3.268,0,6.413-1.81,7.967-4.934
	c7.573-15.234,22.83-24.698,39.816-24.698c24.507,0,44.445,19.937,44.445,44.445c0,23.031-17.608,42.022-40.07,44.226
	c-0.681-16.079-5.116-31.835-13.043-46.171c0.89-3.968,4.435-6.944,8.668-6.944c4.902,0,8.889,3.987,8.889,8.889
	c0,4.91,3.98,8.889,8.889,8.889c4.909,0,8.889-3.979,8.889-8.889c0-14.703-11.962-26.667-26.667-26.667
	s-26.667,11.963-26.667,26.667c0,0.044,0.006,0.087,0.007,0.13c0.002,0.184,0.014,0.365,0.027,0.545
	c0.008,0.115,0.015,0.23,0.028,0.345c0.019,0.169,0.047,0.337,0.077,0.503c0.023,0.127,0.043,0.254,0.07,0.38
	c0.032,0.145,0.071,0.286,0.11,0.428c0.04,0.146,0.078,0.292,0.126,0.436c0.039,0.119,0.084,0.233,0.128,0.35
	c0.062,0.162,0.123,0.326,0.194,0.486c0.045,0.1,0.095,0.198,0.142,0.296c0.083,0.168,0.168,0.337,0.262,0.501
	c0.02,0.036,0.036,0.073,0.057,0.109c8.658,14.698,12.821,31.296,12.049,48.016c-0.004,0.058-0.014,0.115-0.018,0.173
	c-1.38,28.615-17.124,54.542-42.117,69.358c-31.141,18.46-65.255,29.644-100.001,33.562c-3.671,0.352-7.334,0.661-10.971,0.882
	c-0.474,0.028-0.934,0.104-1.383,0.204c-4.095,0.904-7.084,4.6-6.962,8.92c0.005,0.153,0.012,0.306,0.023,0.473
	c-0.044,2.309-0.964,4.473-2.602,6.111l0,0l0,0c-1.678,1.678-3.91,2.603-6.285,2.603c-2.374,0-4.604-0.924-6.283-2.602
	c-0.001-0.001-0.002-0.002-0.004-0.004c-1.638-1.638-2.559-3.803-2.6-6.114c0.009-0.154,0.018-0.307,0.024-0.462
	c0.139-4.264-2.757-7.934-6.764-8.915c-0.507-0.124-1.029-0.212-1.567-0.245c-4.366-0.273-8.769-0.652-13.179-1.112
	c-33.988-4.136-67.322-15.232-97.808-33.304c-0.955-0.567-1.914-1.177-3.063-1.922c-23.476-15.213-37.708-39.794-39.047-67.437
	c-0.004-0.07-0.015-0.137-0.02-0.206c-0.768-16.705,3.392-33.292,12.045-47.98c0.021-0.036,0.037-0.073,0.057-0.109
	c0.095-0.165,0.18-0.333,0.262-0.501c0.049-0.098,0.098-0.196,0.142-0.296c0.071-0.161,0.134-0.324,0.194-0.486
	c0.044-0.116,0.089-0.231,0.128-0.35c0.047-0.145,0.087-0.29,0.126-0.436c0.039-0.142,0.078-0.283,0.11-0.428
	c0.027-0.127,0.047-0.254,0.07-0.38c0.028-0.167,0.057-0.333,0.077-0.503c0.013-0.115,0.02-0.23,0.028-0.345
	c0.014-0.181,0.025-0.363,0.027-0.545c0.001-0.044,0.007-0.087,0.007-0.13c0-14.703-11.962-26.667-26.667-26.667
	S45.63,215.811,45.63,230.514c0,4.91,3.98,8.889,8.889,8.889s8.889-3.979,8.889-8.889c0-4.902,3.987-8.889,8.889-8.889
	c4.233,0,7.778,2.976,8.668,6.944c-7.927,14.336-12.36,30.093-13.039,46.171c-22.465-2.199-40.075-21.191-40.075-44.223
	c0-24.507,19.937-44.445,44.445-44.445c16.987,0,32.244,9.463,39.816,24.698c1.502,3.021,4.585,4.932,7.96,4.932
	c8.532,0,15.91-5.787,17.94-14.072c5.039-20.571,15.336-39.319,29.957-54.67c24.346,21.463,55.28,33.186,88.031,33.186
	c11.641,0,23.051-1.489,34.017-4.361c-0.686,4.25,1.793,8.485,6.015,9.858c6.281,2.046,12.744,3.067,19.212,3.067
	c6.469,0,12.942-1.023,19.237-3.068c4.668-1.517,7.225-6.532,5.707-11.2c-1.516-4.67-6.539-7.225-11.2-5.707
	c-7.22,2.345-14.762,2.804-22.093,1.387c13.452-5.553,25.983-13.33,37.13-23.156c10.095,10.636,18.302,23.125,23.956,36.527
	c1.908,4.523,7.122,6.643,11.646,4.734c4.523-1.908,6.643-7.123,4.735-11.646c-7.699-18.247-19.52-35.014-34.184-48.49
	c-3.513-3.227-8.946-3.108-12.312,0.271c-21.844,21.928-50.917,34.004-81.866,34.004s-60.021-12.076-81.866-34.004
	c-3.366-3.379-8.798-3.499-12.312-0.271c-19.205,17.649-32.939,39.992-39.909,64.855c-11.626-15.435-29.778-24.652-49.618-24.652
	c-34.31,0-62.222,27.914-62.222,62.222c0,33.108,25.991,60.259,58.641,62.12c3.902,29.907,20.479,56.154,46.37,72.933
	c1.326,0.86,2.457,1.579,3.667,2.297c12.85,7.617,26.291,14.117,40.167,19.461c-23.635,19.848-40.794,46.567-48.829,76.384
	c-1.278,4.74,1.53,9.618,6.271,10.895c0.774,0.209,1.553,0.308,2.318,0.308c3.921,0,7.508-2.612,8.577-6.579
	c8.02-29.764,26.351-56.042,51.617-73.994c0.073-0.052,0.137-0.111,0.209-0.165c6.797,2.015,13.676,3.762,20.621,5.236v10.099
	c0,6.458,2.655,12.443,7.137,16.716c-3.906,7.775-2.633,17.508,3.847,23.989l36.325,36.324v16.565c0,4.91,3.98,8.889,8.889,8.889
	s8.889-3.979,8.889-8.889v-16.367l36.522-36.522c6.481-6.482,7.754-16.215,3.847-23.989c4.482-4.274,7.137-10.258,7.137-16.716
	v-10.099c6.933-1.473,13.802-3.215,20.587-5.227c25.396,17.963,43.807,44.26,51.86,74.148c1.069,3.967,4.657,6.579,8.577,6.579
	c0.766,0,1.544-0.1,2.318-0.308c4.741-1.278,7.547-6.156,6.271-10.895c-8.043-29.85-25.183-56.542-48.821-76.388
	c13.874-5.343,27.313-11.841,40.16-19.457c27.639-16.383,45.902-44.074,50.036-75.23c32.65-1.861,58.642-29.012,58.642-62.12
	C501.926,199.08,478.486,173.03,448.167,168.887z M220.773,414.443c-0.99-0.41-3.292-1.71-3.292-4.927v-6.658
	c4.335,0.532,8.673,0.981,12.992,1.346c0.389,1.285,0.873,2.535,1.453,3.744l-5.339,5.339
	C224.312,415.562,221.763,414.855,220.773,414.443z M223.258,437.652c-1.156-1.157-1.156-3.036,0-4.192
	c0.279-0.279,0.526-0.575,0.76-0.878c5.587-0.288,10.999-2.583,15.138-6.722l5.364-5.364c0.813,0.389,1.643,0.734,2.491,1.037
	v39.873L223.258,437.652z M288.741,437.651l-23.951,23.951v-40c0.917-0.32,1.813-0.69,2.689-1.108l5.364,5.364
	c4.109,4.109,9.47,6.4,15.013,6.716l0.885,0.885C289.896,434.615,289.896,436.495,288.741,437.651z M294.519,409.515
	c0,3.217-2.302,4.518-3.292,4.927c-0.991,0.411-3.54,1.118-5.812-1.157l-5.34-5.34c0.572-1.195,1.054-2.431,1.44-3.7
	c4.324-0.359,8.667-0.804,13.005-1.332V409.515z"/>
<path d="M337.709,421.4c-3.471-3.47-9.1-3.471-12.57,0.001c-3.471,3.471-3.471,9.1,0,12.57
	c13.756,13.755,23.014,31.061,26.77,50.047c0.838,4.232,4.552,7.164,8.71,7.164c0.572,0,1.153-0.056,1.735-0.171
	c4.815-0.953,7.948-5.63,6.995-10.445C364.907,458.115,353.966,437.656,337.709,421.4z"/>
<path d="M174.29,421.4c-16.256,16.256-27.198,36.716-31.64,59.167c-0.953,4.815,2.178,9.493,6.995,10.445
	c0.582,0.116,1.163,0.171,1.735,0.171c4.158,0,7.872-2.932,8.71-7.164c3.756-18.986,13.013-36.29,26.77-50.047
	c3.471-3.471,3.471-9.1,0-12.57C183.389,417.929,177.761,417.93,174.29,421.4z"/>
<g>
</g>
<g>
</g>
<g>
</g>
<g>
</g>
<g>
</g>
<g>
</g>
<g>
</g>
<g>
</g>
<g>
</g>
<g>
</g>
<g>
</g>
<g>
</g>
<g>
</g>
<g>
</g>
<g>
</g>
</svg>
